<svg width="89" height="75" viewBox="0 0 89 75" fill="none" xmlns="http://www.w3.org/2000/svg">
<path d="M83.8449 29.1201C81.9445 34.4896 78.7662 39.4864 74.5727 43.7226C73.9312 44.3709 72.8425 44.4658 72.1847 43.9953C71.4676 43.4832 71.3779 42.6357 71.814 41.8235C72.9879 39.6369 74.1625 37.4514 75.3365 35.2648C72.7235 36.8581 70.0219 38.3094 67.2529 39.6063C61.5933 42.2569 55.6761 44.313 49.6406 45.6437C38.5824 48.0814 27.2619 48.1048 16.7161 45.7618C13.8731 45.1303 11.1011 44.3047 8.40493 43.3283C5.66681 42.3375 2.87838 41.2478 0.467606 39.7246C-0.146402 39.3359 0.425687 38.4422 1.1183 38.7082C3.45673 39.6117 5.71355 40.656 8.09554 41.4808C10.4712 42.3034 12.9144 42.9754 15.3978 43.5425C20.3474 44.6732 25.4739 45.2959 30.6837 45.3532C41.8467 45.4758 53.2963 43.047 63.8068 38.2646C66.8611 36.8743 69.8389 35.2993 72.7086 33.5517C74.1772 32.6578 75.6493 31.735 77.0396 30.7257C77.4634 30.4186 77.8775 30.0977 78.2879 29.7731C78.4117 29.5426 78.5355 29.312 78.658 29.0822C75.7494 28.334 72.8383 27.5932 69.9265 26.8542C69.019 26.623 68.462 25.7747 68.7705 24.8519C69.0574 23.9935 70.1234 23.3097 71.0335 23.5453C74.5934 24.4705 78.1539 25.3968 81.7213 26.3058C82.2531 26.4417 82.6125 26.7471 82.7928 27.138C82.8982 27.1664 83.0017 27.2032 83.1035 27.2544C83.767 27.5864 84.1045 28.389 83.8449 29.1201Z" fill="#0D0D0D"/>
</svg>
